<mxfile host="app.diagrams.net" modified="2023-06-29T10:46:51.877Z" agent="Mozilla/5.0 (Windows NT 10.0; Win64; x64) AppleWebKit/537.36 (KHTML, like Gecko) Chrome/114.0.0.0 Safari/537.36" etag="qBJZqry658etu8XcfV1-" version="21.5.2" type="github">
  <diagram name="Sayfa -1" id="q63UPS5SY1p96AxTd2SY">
    <mxGraphModel dx="1750" dy="955" grid="1" gridSize="10" guides="1" tooltips="1" connect="1" arrows="1" fold="1" page="1" pageScale="1" pageWidth="827" pageHeight="1169" math="0" shadow="0">
      <root>
        <mxCell id="0" />
        <mxCell id="1" parent="0" />
        <mxCell id="VHsi2rnCGCBOOqxieZPw-1" value="" style="text;strokeColor=none;fillColor=none;align=left;verticalAlign=middle;spacingTop=-1;spacingLeft=4;spacingRight=4;rotatable=0;labelPosition=right;points=[];portConstraint=eastwest;" vertex="1" parent="1">
          <mxGeometry x="400" y="190" width="20" height="14" as="geometry" />
        </mxCell>
        <mxCell id="VHsi2rnCGCBOOqxieZPw-2" value="Simulator" style="swimlane;fontStyle=1;align=center;verticalAlign=top;childLayout=stackLayout;horizontal=1;startSize=26;horizontalStack=0;resizeParent=1;resizeParentMax=0;resizeLast=0;collapsible=1;marginBottom=0;whiteSpace=wrap;html=1;fillColor=#dae8fc;strokeColor=#6c8ebf;" vertex="1" parent="1">
          <mxGeometry x="314" y="120" width="200" height="108" as="geometry" />
        </mxCell>
        <mxCell id="VHsi2rnCGCBOOqxieZPw-3" value="- building : Building&lt;br&gt;- elevatorSystem : ElevatorSystem&lt;br&gt;- passengerCount : int&lt;br&gt;- passengers[] : Passenger&lt;br&gt;" style="text;strokeColor=none;fillColor=none;align=left;verticalAlign=top;spacingLeft=4;spacingRight=4;overflow=hidden;rotatable=0;points=[[0,0.5],[1,0.5]];portConstraint=eastwest;whiteSpace=wrap;html=1;" vertex="1" parent="VHsi2rnCGCBOOqxieZPw-2">
          <mxGeometry y="26" width="200" height="74" as="geometry" />
        </mxCell>
        <mxCell id="VHsi2rnCGCBOOqxieZPw-4" value="" style="line;strokeWidth=1;fillColor=none;align=left;verticalAlign=middle;spacingTop=-1;spacingLeft=3;spacingRight=3;rotatable=0;labelPosition=right;points=[];portConstraint=eastwest;strokeColor=inherit;" vertex="1" parent="VHsi2rnCGCBOOqxieZPw-2">
          <mxGeometry y="100" width="200" height="8" as="geometry" />
        </mxCell>
        <mxCell id="VHsi2rnCGCBOOqxieZPw-6" value="Building" style="swimlane;fontStyle=1;align=center;verticalAlign=top;childLayout=stackLayout;horizontal=1;startSize=26;horizontalStack=0;resizeParent=1;resizeParentMax=0;resizeLast=0;collapsible=1;marginBottom=0;whiteSpace=wrap;html=1;fillColor=#fff2cc;strokeColor=#d6b656;" vertex="1" parent="1">
          <mxGeometry x="80" y="80" width="170" height="98" as="geometry" />
        </mxCell>
        <mxCell id="VHsi2rnCGCBOOqxieZPw-7" value="- floorCount : int&lt;br&gt;- numElevatorsPerFloor : int&lt;br&gt;- floors[] : Floor" style="text;strokeColor=none;fillColor=none;align=left;verticalAlign=top;spacingLeft=4;spacingRight=4;overflow=hidden;rotatable=0;points=[[0,0.5],[1,0.5]];portConstraint=eastwest;whiteSpace=wrap;html=1;" vertex="1" parent="VHsi2rnCGCBOOqxieZPw-6">
          <mxGeometry y="26" width="170" height="64" as="geometry" />
        </mxCell>
        <mxCell id="VHsi2rnCGCBOOqxieZPw-8" value="" style="line;strokeWidth=1;fillColor=none;align=left;verticalAlign=middle;spacingTop=-1;spacingLeft=3;spacingRight=3;rotatable=0;labelPosition=right;points=[];portConstraint=eastwest;strokeColor=inherit;" vertex="1" parent="VHsi2rnCGCBOOqxieZPw-6">
          <mxGeometry y="90" width="170" height="8" as="geometry" />
        </mxCell>
        <mxCell id="VHsi2rnCGCBOOqxieZPw-9" value="Elevator System" style="swimlane;fontStyle=1;align=center;verticalAlign=top;childLayout=stackLayout;horizontal=1;startSize=26;horizontalStack=0;resizeParent=1;resizeParentMax=0;resizeLast=0;collapsible=1;marginBottom=0;whiteSpace=wrap;html=1;fillColor=#fff2cc;strokeColor=#d6b656;" vertex="1" parent="1">
          <mxGeometry x="580" y="80" width="130" height="78" as="geometry" />
        </mxCell>
        <mxCell id="VHsi2rnCGCBOOqxieZPw-10" value="- building : Building&amp;nbsp;&lt;br&gt;- elevators[]: Elevator" style="text;strokeColor=none;fillColor=none;align=left;verticalAlign=top;spacingLeft=4;spacingRight=4;overflow=hidden;rotatable=0;points=[[0,0.5],[1,0.5]];portConstraint=eastwest;whiteSpace=wrap;html=1;" vertex="1" parent="VHsi2rnCGCBOOqxieZPw-9">
          <mxGeometry y="26" width="130" height="44" as="geometry" />
        </mxCell>
        <mxCell id="VHsi2rnCGCBOOqxieZPw-11" value="" style="line;strokeWidth=1;fillColor=none;align=left;verticalAlign=middle;spacingTop=-1;spacingLeft=3;spacingRight=3;rotatable=0;labelPosition=right;points=[];portConstraint=eastwest;strokeColor=inherit;" vertex="1" parent="VHsi2rnCGCBOOqxieZPw-9">
          <mxGeometry y="70" width="130" height="8" as="geometry" />
        </mxCell>
        <mxCell id="VHsi2rnCGCBOOqxieZPw-12" value="Floor" style="swimlane;fontStyle=1;align=center;verticalAlign=top;childLayout=stackLayout;horizontal=1;startSize=26;horizontalStack=0;resizeParent=1;resizeParentMax=0;resizeLast=0;collapsible=1;marginBottom=0;whiteSpace=wrap;html=1;fillColor=#d5e8d4;strokeColor=#82b366;" vertex="1" parent="1">
          <mxGeometry x="80" y="250" width="190" height="108" as="geometry" />
        </mxCell>
        <mxCell id="VHsi2rnCGCBOOqxieZPw-13" value="- floorNo : int&lt;br&gt;- doorCount : int&lt;br&gt;- doors[] : Door&lt;br&gt;- callPanels[] : ExternalCallPanel" style="text;strokeColor=none;fillColor=none;align=left;verticalAlign=top;spacingLeft=4;spacingRight=4;overflow=hidden;rotatable=0;points=[[0,0.5],[1,0.5]];portConstraint=eastwest;whiteSpace=wrap;html=1;" vertex="1" parent="VHsi2rnCGCBOOqxieZPw-12">
          <mxGeometry y="26" width="190" height="74" as="geometry" />
        </mxCell>
        <mxCell id="VHsi2rnCGCBOOqxieZPw-14" value="" style="line;strokeWidth=1;fillColor=none;align=left;verticalAlign=middle;spacingTop=-1;spacingLeft=3;spacingRight=3;rotatable=0;labelPosition=right;points=[];portConstraint=eastwest;strokeColor=inherit;" vertex="1" parent="VHsi2rnCGCBOOqxieZPw-12">
          <mxGeometry y="100" width="190" height="8" as="geometry" />
        </mxCell>
        <mxCell id="VHsi2rnCGCBOOqxieZPw-16" value="Passenger" style="swimlane;fontStyle=1;align=center;verticalAlign=top;childLayout=stackLayout;horizontal=1;startSize=26;horizontalStack=0;resizeParent=1;resizeParentMax=0;resizeLast=0;collapsible=1;marginBottom=0;whiteSpace=wrap;html=1;fillColor=#f8cecc;strokeColor=#b85450;" vertex="1" parent="1">
          <mxGeometry x="320" y="290" width="130" height="108" as="geometry" />
        </mxCell>
        <mxCell id="VHsi2rnCGCBOOqxieZPw-17" value="- id : int&lt;br&gt;- currentFloorNo : int&lt;br&gt;- targetFloorNo : int&lt;br&gt;- isMoving : boolean" style="text;strokeColor=none;fillColor=none;align=left;verticalAlign=top;spacingLeft=4;spacingRight=4;overflow=hidden;rotatable=0;points=[[0,0.5],[1,0.5]];portConstraint=eastwest;whiteSpace=wrap;html=1;" vertex="1" parent="VHsi2rnCGCBOOqxieZPw-16">
          <mxGeometry y="26" width="130" height="74" as="geometry" />
        </mxCell>
        <mxCell id="VHsi2rnCGCBOOqxieZPw-18" value="" style="line;strokeWidth=1;fillColor=none;align=left;verticalAlign=middle;spacingTop=-1;spacingLeft=3;spacingRight=3;rotatable=0;labelPosition=right;points=[];portConstraint=eastwest;strokeColor=inherit;" vertex="1" parent="VHsi2rnCGCBOOqxieZPw-16">
          <mxGeometry y="100" width="130" height="8" as="geometry" />
        </mxCell>
        <mxCell id="VHsi2rnCGCBOOqxieZPw-19" value="Elevator" style="swimlane;fontStyle=1;align=center;verticalAlign=top;childLayout=stackLayout;horizontal=1;startSize=26;horizontalStack=0;resizeParent=1;resizeParentMax=0;resizeLast=0;collapsible=1;marginBottom=0;whiteSpace=wrap;html=1;fillColor=#fff2cc;strokeColor=#d6b656;" vertex="1" parent="1">
          <mxGeometry x="514" y="280" width="300" height="168" as="geometry" />
        </mxCell>
        <mxCell id="VHsi2rnCGCBOOqxieZPw-20" value="- id : int&lt;br&gt;- capacity : int = 6&lt;br&gt;- currentFloorNum : int&lt;br&gt;- elevatorState : enum {IDLE, GO_UP, GO_DOWN}&lt;br&gt;- internelDisplay : InternalDisplay&lt;br&gt;- externalDisplays[] : ExternalDisplay&lt;br&gt;- internalControlPanel : InternalControlPanel" style="text;strokeColor=none;fillColor=none;align=left;verticalAlign=top;spacingLeft=4;spacingRight=4;overflow=hidden;rotatable=0;points=[[0,0.5],[1,0.5]];portConstraint=eastwest;whiteSpace=wrap;html=1;" vertex="1" parent="VHsi2rnCGCBOOqxieZPw-19">
          <mxGeometry y="26" width="300" height="134" as="geometry" />
        </mxCell>
        <mxCell id="VHsi2rnCGCBOOqxieZPw-21" value="" style="line;strokeWidth=1;fillColor=none;align=left;verticalAlign=middle;spacingTop=-1;spacingLeft=3;spacingRight=3;rotatable=0;labelPosition=right;points=[];portConstraint=eastwest;strokeColor=inherit;" vertex="1" parent="VHsi2rnCGCBOOqxieZPw-19">
          <mxGeometry y="160" width="300" height="8" as="geometry" />
        </mxCell>
        <mxCell id="VHsi2rnCGCBOOqxieZPw-22" value="Door" style="swimlane;fontStyle=1;align=center;verticalAlign=top;childLayout=stackLayout;horizontal=1;startSize=26;horizontalStack=0;resizeParent=1;resizeParentMax=0;resizeLast=0;collapsible=1;marginBottom=0;whiteSpace=wrap;html=1;fillColor=#d5e8d4;strokeColor=#82b366;" vertex="1" parent="1">
          <mxGeometry x="105" y="430" width="140" height="108" as="geometry" />
        </mxCell>
        <mxCell id="VHsi2rnCGCBOOqxieZPw-23" value="- elevatorShaftNo : int&lt;br&gt;- doorDisplay : Display&lt;br&gt;- isOpen : boolean" style="text;strokeColor=none;fillColor=none;align=left;verticalAlign=top;spacingLeft=4;spacingRight=4;overflow=hidden;rotatable=0;points=[[0,0.5],[1,0.5]];portConstraint=eastwest;whiteSpace=wrap;html=1;" vertex="1" parent="VHsi2rnCGCBOOqxieZPw-22">
          <mxGeometry y="26" width="140" height="74" as="geometry" />
        </mxCell>
        <mxCell id="VHsi2rnCGCBOOqxieZPw-24" value="" style="line;strokeWidth=1;fillColor=none;align=left;verticalAlign=middle;spacingTop=-1;spacingLeft=3;spacingRight=3;rotatable=0;labelPosition=right;points=[];portConstraint=eastwest;strokeColor=inherit;" vertex="1" parent="VHsi2rnCGCBOOqxieZPw-22">
          <mxGeometry y="100" width="140" height="8" as="geometry" />
        </mxCell>
        <mxCell id="VHsi2rnCGCBOOqxieZPw-25" value="" style="text;strokeColor=none;fillColor=none;align=left;verticalAlign=middle;spacingTop=-1;spacingLeft=4;spacingRight=4;rotatable=0;labelPosition=right;points=[];portConstraint=eastwest;" vertex="1" parent="1">
          <mxGeometry x="376" y="530" width="20" height="14" as="geometry" />
        </mxCell>
        <mxCell id="VHsi2rnCGCBOOqxieZPw-26" value="ExternalDisplay" style="swimlane;fontStyle=1;align=center;verticalAlign=top;childLayout=stackLayout;horizontal=1;startSize=26;horizontalStack=0;resizeParent=1;resizeParentMax=0;resizeLast=0;collapsible=1;marginBottom=0;whiteSpace=wrap;html=1;fillColor=#dae8fc;strokeColor=#6c8ebf;" vertex="1" parent="1">
          <mxGeometry x="290" y="477" width="260" height="68" as="geometry" />
        </mxCell>
        <mxCell id="VHsi2rnCGCBOOqxieZPw-27" value="- directionDisplay : enum{NONE, UP, DOWN}" style="text;strokeColor=none;fillColor=none;align=left;verticalAlign=top;spacingLeft=4;spacingRight=4;overflow=hidden;rotatable=0;points=[[0,0.5],[1,0.5]];portConstraint=eastwest;whiteSpace=wrap;html=1;" vertex="1" parent="VHsi2rnCGCBOOqxieZPw-26">
          <mxGeometry y="26" width="260" height="34" as="geometry" />
        </mxCell>
        <mxCell id="VHsi2rnCGCBOOqxieZPw-28" value="" style="line;strokeWidth=1;fillColor=none;align=left;verticalAlign=middle;spacingTop=-1;spacingLeft=3;spacingRight=3;rotatable=0;labelPosition=right;points=[];portConstraint=eastwest;strokeColor=inherit;" vertex="1" parent="VHsi2rnCGCBOOqxieZPw-26">
          <mxGeometry y="60" width="260" height="8" as="geometry" />
        </mxCell>
        <mxCell id="VHsi2rnCGCBOOqxieZPw-29" value="InternalControlPanel" style="swimlane;fontStyle=1;align=center;verticalAlign=top;childLayout=stackLayout;horizontal=1;startSize=26;horizontalStack=0;resizeParent=1;resizeParentMax=0;resizeLast=0;collapsible=1;marginBottom=0;whiteSpace=wrap;html=1;fillColor=#d5e8d4;strokeColor=#82b366;" vertex="1" parent="1">
          <mxGeometry x="610" y="538" width="190" height="88" as="geometry" />
        </mxCell>
        <mxCell id="VHsi2rnCGCBOOqxieZPw-30" value="- relatedElevator : int&lt;br&gt;- activeTargetList[] : List&amp;lt;int&amp;gt;&lt;br&gt;- internalDisplay : InternalDisplay" style="text;strokeColor=none;fillColor=none;align=left;verticalAlign=top;spacingLeft=4;spacingRight=4;overflow=hidden;rotatable=0;points=[[0,0.5],[1,0.5]];portConstraint=eastwest;whiteSpace=wrap;html=1;" vertex="1" parent="VHsi2rnCGCBOOqxieZPw-29">
          <mxGeometry y="26" width="190" height="54" as="geometry" />
        </mxCell>
        <mxCell id="VHsi2rnCGCBOOqxieZPw-31" value="" style="line;strokeWidth=1;fillColor=none;align=left;verticalAlign=middle;spacingTop=-1;spacingLeft=3;spacingRight=3;rotatable=0;labelPosition=right;points=[];portConstraint=eastwest;strokeColor=inherit;" vertex="1" parent="VHsi2rnCGCBOOqxieZPw-29">
          <mxGeometry y="80" width="190" height="8" as="geometry" />
        </mxCell>
        <mxCell id="VHsi2rnCGCBOOqxieZPw-32" value="ExternalCallPanel" style="swimlane;fontStyle=1;align=center;verticalAlign=top;childLayout=stackLayout;horizontal=1;startSize=26;horizontalStack=0;resizeParent=1;resizeParentMax=0;resizeLast=0;collapsible=1;marginBottom=0;whiteSpace=wrap;html=1;fillColor=#d5e8d4;strokeColor=#82b366;" vertex="1" parent="1">
          <mxGeometry x="80" y="620" width="220" height="108" as="geometry" />
        </mxCell>
        <mxCell id="VHsi2rnCGCBOOqxieZPw-33" value="- relatedFloorNo : int&lt;br&gt;- direction : enum{NONE, UP, DOWN}&lt;br&gt;- isActive : boolean" style="text;strokeColor=none;fillColor=none;align=left;verticalAlign=top;spacingLeft=4;spacingRight=4;overflow=hidden;rotatable=0;points=[[0,0.5],[1,0.5]];portConstraint=eastwest;whiteSpace=wrap;html=1;" vertex="1" parent="VHsi2rnCGCBOOqxieZPw-32">
          <mxGeometry y="26" width="220" height="74" as="geometry" />
        </mxCell>
        <mxCell id="VHsi2rnCGCBOOqxieZPw-34" value="" style="line;strokeWidth=1;fillColor=none;align=left;verticalAlign=middle;spacingTop=-1;spacingLeft=3;spacingRight=3;rotatable=0;labelPosition=right;points=[];portConstraint=eastwest;strokeColor=inherit;" vertex="1" parent="VHsi2rnCGCBOOqxieZPw-32">
          <mxGeometry y="100" width="220" height="8" as="geometry" />
        </mxCell>
        <mxCell id="VHsi2rnCGCBOOqxieZPw-35" value="" style="text;strokeColor=none;fillColor=none;align=left;verticalAlign=middle;spacingTop=-1;spacingLeft=4;spacingRight=4;rotatable=0;labelPosition=right;points=[];portConstraint=eastwest;" vertex="1" parent="1">
          <mxGeometry x="376" y="823" width="20" height="14" as="geometry" />
        </mxCell>
        <mxCell id="VHsi2rnCGCBOOqxieZPw-36" value="Display" style="swimlane;fontStyle=1;align=center;verticalAlign=top;childLayout=stackLayout;horizontal=1;startSize=26;horizontalStack=0;resizeParent=1;resizeParentMax=0;resizeLast=0;collapsible=1;marginBottom=0;whiteSpace=wrap;html=1;fillColor=#dae8fc;strokeColor=#6c8ebf;" vertex="1" parent="1">
          <mxGeometry x="324" y="735" width="180" height="88" as="geometry" />
        </mxCell>
        <mxCell id="VHsi2rnCGCBOOqxieZPw-37" value="- relatedElevator : Elevator&lt;br&gt;- currentFloorNoOnDisplay : int" style="text;strokeColor=none;fillColor=none;align=left;verticalAlign=top;spacingLeft=4;spacingRight=4;overflow=hidden;rotatable=0;points=[[0,0.5],[1,0.5]];portConstraint=eastwest;whiteSpace=wrap;html=1;" vertex="1" parent="VHsi2rnCGCBOOqxieZPw-36">
          <mxGeometry y="26" width="180" height="54" as="geometry" />
        </mxCell>
        <mxCell id="VHsi2rnCGCBOOqxieZPw-38" value="" style="line;strokeWidth=1;fillColor=none;align=left;verticalAlign=middle;spacingTop=-1;spacingLeft=3;spacingRight=3;rotatable=0;labelPosition=right;points=[];portConstraint=eastwest;strokeColor=inherit;" vertex="1" parent="VHsi2rnCGCBOOqxieZPw-36">
          <mxGeometry y="80" width="180" height="8" as="geometry" />
        </mxCell>
        <mxCell id="VHsi2rnCGCBOOqxieZPw-39" value="" style="text;strokeColor=none;fillColor=none;align=left;verticalAlign=middle;spacingTop=-1;spacingLeft=4;spacingRight=4;rotatable=0;labelPosition=right;points=[];portConstraint=eastwest;" vertex="1" parent="1">
          <mxGeometry x="632" y="838" width="20" height="14" as="geometry" />
        </mxCell>
        <mxCell id="VHsi2rnCGCBOOqxieZPw-40" value="InternalDisplay" style="swimlane;fontStyle=1;align=center;verticalAlign=top;childLayout=stackLayout;horizontal=1;startSize=26;horizontalStack=0;resizeParent=1;resizeParentMax=0;resizeLast=0;collapsible=1;marginBottom=0;whiteSpace=wrap;html=1;fillColor=#dae8fc;strokeColor=#6c8ebf;" vertex="1" parent="1">
          <mxGeometry x="580" y="750" width="180" height="34" as="geometry" />
        </mxCell>
        <mxCell id="VHsi2rnCGCBOOqxieZPw-42" value="" style="line;strokeWidth=1;fillColor=none;align=left;verticalAlign=middle;spacingTop=-1;spacingLeft=3;spacingRight=3;rotatable=0;labelPosition=right;points=[];portConstraint=eastwest;strokeColor=inherit;" vertex="1" parent="VHsi2rnCGCBOOqxieZPw-40">
          <mxGeometry y="26" width="180" height="8" as="geometry" />
        </mxCell>
        <mxCell id="VHsi2rnCGCBOOqxieZPw-43" value="" style="endArrow=diamondThin;endFill=1;endSize=24;html=1;rounded=0;entryX=0.5;entryY=0;entryDx=0;entryDy=0;exitX=0.596;exitY=-0.024;exitDx=0;exitDy=0;exitPerimeter=0;" edge="1" parent="1" source="VHsi2rnCGCBOOqxieZPw-9" target="VHsi2rnCGCBOOqxieZPw-6">
          <mxGeometry width="160" relative="1" as="geometry">
            <mxPoint x="270" y="50" as="sourcePoint" />
            <mxPoint x="430" y="50" as="targetPoint" />
            <Array as="points">
              <mxPoint x="657" y="30" />
              <mxPoint x="410" y="30" />
              <mxPoint x="165" y="30" />
            </Array>
          </mxGeometry>
        </mxCell>
        <mxCell id="VHsi2rnCGCBOOqxieZPw-44" value="" style="endArrow=diamondThin;endFill=0;endSize=24;html=1;rounded=0;entryX=-0.011;entryY=0.373;entryDx=0;entryDy=0;entryPerimeter=0;" edge="1" parent="1" target="VHsi2rnCGCBOOqxieZPw-3">
          <mxGeometry width="160" relative="1" as="geometry">
            <mxPoint x="250" y="120" as="sourcePoint" />
            <mxPoint x="430" y="50" as="targetPoint" />
            <Array as="points">
              <mxPoint x="280" y="120" />
              <mxPoint x="280" y="174" />
            </Array>
          </mxGeometry>
        </mxCell>
        <mxCell id="VHsi2rnCGCBOOqxieZPw-45" value="" style="endArrow=diamondThin;endFill=0;endSize=24;html=1;rounded=0;entryX=1;entryY=0.426;entryDx=0;entryDy=0;entryPerimeter=0;exitX=-0.008;exitY=0.313;exitDx=0;exitDy=0;exitPerimeter=0;" edge="1" parent="1" source="VHsi2rnCGCBOOqxieZPw-10" target="VHsi2rnCGCBOOqxieZPw-3">
          <mxGeometry width="160" relative="1" as="geometry">
            <mxPoint x="504" y="147" as="sourcePoint" />
            <mxPoint x="566" y="201" as="targetPoint" />
            <Array as="points">
              <mxPoint x="550" y="120" />
              <mxPoint x="550" y="180" />
            </Array>
          </mxGeometry>
        </mxCell>
        <mxCell id="VHsi2rnCGCBOOqxieZPw-46" value="" style="endArrow=diamondThin;endFill=1;endSize=24;html=1;rounded=0;exitX=0.464;exitY=-0.001;exitDx=0;exitDy=0;exitPerimeter=0;entryX=0.52;entryY=0.476;entryDx=0;entryDy=0;entryPerimeter=0;" edge="1" parent="1" source="VHsi2rnCGCBOOqxieZPw-12" target="VHsi2rnCGCBOOqxieZPw-8">
          <mxGeometry width="160" relative="1" as="geometry">
            <mxPoint x="230" y="190" as="sourcePoint" />
            <mxPoint x="170" y="180" as="targetPoint" />
          </mxGeometry>
        </mxCell>
        <mxCell id="VHsi2rnCGCBOOqxieZPw-47" value="" style="endArrow=diamondThin;endFill=1;endSize=24;html=1;rounded=0;exitX=0.437;exitY=-0.015;exitDx=0;exitDy=0;entryX=0.5;entryY=1;entryDx=0;entryDy=0;exitPerimeter=0;" edge="1" parent="1" source="VHsi2rnCGCBOOqxieZPw-19" target="VHsi2rnCGCBOOqxieZPw-9">
          <mxGeometry width="160" relative="1" as="geometry">
            <mxPoint x="513.3299999999999" y="246" as="sourcePoint" />
            <mxPoint x="513.3299999999999" y="170" as="targetPoint" />
          </mxGeometry>
        </mxCell>
        <mxCell id="VHsi2rnCGCBOOqxieZPw-48" value="" style="endArrow=diamondThin;endFill=0;endSize=24;html=1;rounded=0;exitX=0.5;exitY=0;exitDx=0;exitDy=0;" edge="1" parent="1" source="VHsi2rnCGCBOOqxieZPw-16">
          <mxGeometry width="160" relative="1" as="geometry">
            <mxPoint x="260" y="190" as="sourcePoint" />
            <mxPoint x="385" y="230" as="targetPoint" />
          </mxGeometry>
        </mxCell>
        <mxCell id="VHsi2rnCGCBOOqxieZPw-49" value="" style="endArrow=diamondThin;endFill=1;endSize=24;html=1;rounded=0;exitX=0.464;exitY=-0.001;exitDx=0;exitDy=0;exitPerimeter=0;entryX=0.52;entryY=0.476;entryDx=0;entryDy=0;entryPerimeter=0;" edge="1" parent="1">
          <mxGeometry width="160" relative="1" as="geometry">
            <mxPoint x="174.58" y="430" as="sourcePoint" />
            <mxPoint x="174.58" y="354" as="targetPoint" />
          </mxGeometry>
        </mxCell>
        <mxCell id="VHsi2rnCGCBOOqxieZPw-50" value="" style="endArrow=diamondThin;endFill=1;endSize=24;html=1;rounded=0;exitX=0.464;exitY=-0.001;exitDx=0;exitDy=0;exitPerimeter=0;entryX=0.614;entryY=0.042;entryDx=0;entryDy=0;entryPerimeter=0;" edge="1" parent="1" target="VHsi2rnCGCBOOqxieZPw-21">
          <mxGeometry width="160" relative="1" as="geometry">
            <mxPoint x="700" y="538" as="sourcePoint" />
            <mxPoint x="700" y="462" as="targetPoint" />
          </mxGeometry>
        </mxCell>
        <mxCell id="VHsi2rnCGCBOOqxieZPw-51" value="" style="endArrow=diamondThin;endFill=0;endSize=24;html=1;rounded=0;entryX=-0.011;entryY=0.406;entryDx=0;entryDy=0;entryPerimeter=0;" edge="1" parent="1" target="VHsi2rnCGCBOOqxieZPw-20">
          <mxGeometry width="160" relative="1" as="geometry">
            <mxPoint x="400" y="470" as="sourcePoint" />
            <mxPoint x="409.64" y="417" as="targetPoint" />
            <Array as="points">
              <mxPoint x="400" y="440" />
              <mxPoint x="480" y="440" />
              <mxPoint x="480" y="360" />
            </Array>
          </mxGeometry>
        </mxCell>
        <mxCell id="VHsi2rnCGCBOOqxieZPw-52" value="" style="endArrow=diamondThin;endFill=1;endSize=24;html=1;rounded=0;exitX=0.464;exitY=-0.001;exitDx=0;exitDy=0;exitPerimeter=0;entryX=0.984;entryY=0.094;entryDx=0;entryDy=0;entryPerimeter=0;" edge="1" parent="1" target="VHsi2rnCGCBOOqxieZPw-22">
          <mxGeometry width="160" relative="1" as="geometry">
            <mxPoint x="290" y="496" as="sourcePoint" />
            <mxPoint x="250" y="440" as="targetPoint" />
            <Array as="points">
              <mxPoint x="280" y="496" />
              <mxPoint x="280" y="440" />
            </Array>
          </mxGeometry>
        </mxCell>
        <mxCell id="VHsi2rnCGCBOOqxieZPw-53" value="" style="endArrow=diamondThin;endFill=1;endSize=24;html=1;rounded=0;exitX=-0.003;exitY=0.46;exitDx=0;exitDy=0;entryX=0;entryY=0.324;entryDx=0;entryDy=0;entryPerimeter=0;exitPerimeter=0;" edge="1" parent="1" source="VHsi2rnCGCBOOqxieZPw-33" target="VHsi2rnCGCBOOqxieZPw-13">
          <mxGeometry width="160" relative="1" as="geometry">
            <mxPoint x="194.58" y="450" as="sourcePoint" />
            <mxPoint x="50" y="300" as="targetPoint" />
            <Array as="points">
              <mxPoint x="40" y="680" />
              <mxPoint x="40" y="500" />
              <mxPoint x="40" y="300" />
            </Array>
          </mxGeometry>
        </mxCell>
        <mxCell id="VHsi2rnCGCBOOqxieZPw-54" value="Extends" style="endArrow=block;endSize=16;endFill=0;html=1;rounded=0;exitX=0.469;exitY=1.147;exitDx=0;exitDy=0;exitPerimeter=0;" edge="1" parent="1" source="VHsi2rnCGCBOOqxieZPw-27">
          <mxGeometry width="160" relative="1" as="geometry">
            <mxPoint x="290" y="680" as="sourcePoint" />
            <mxPoint x="410" y="730" as="targetPoint" />
          </mxGeometry>
        </mxCell>
        <mxCell id="VHsi2rnCGCBOOqxieZPw-55" value="Extends" style="endArrow=block;endSize=16;endFill=0;html=1;rounded=0;exitX=0.5;exitY=0;exitDx=0;exitDy=0;entryX=1.005;entryY=0.18;entryDx=0;entryDy=0;entryPerimeter=0;" edge="1" parent="1" source="VHsi2rnCGCBOOqxieZPw-40" target="VHsi2rnCGCBOOqxieZPw-36">
          <mxGeometry width="160" relative="1" as="geometry">
            <mxPoint x="422" y="552" as="sourcePoint" />
            <mxPoint x="420" y="740" as="targetPoint" />
            <Array as="points">
              <mxPoint x="670" y="720" />
              <mxPoint x="590" y="720" />
              <mxPoint x="550" y="720" />
            </Array>
          </mxGeometry>
        </mxCell>
        <mxCell id="VHsi2rnCGCBOOqxieZPw-56" value="" style="endArrow=diamondThin;endFill=0;endSize=24;html=1;rounded=0;exitX=0.5;exitY=0;exitDx=0;exitDy=0;" edge="1" parent="1">
          <mxGeometry width="160" relative="1" as="geometry">
            <mxPoint x="710" y="750" as="sourcePoint" />
            <mxPoint x="710" y="630" as="targetPoint" />
          </mxGeometry>
        </mxCell>
      </root>
    </mxGraphModel>
  </diagram>
</mxfile>
